<svg xmlns="http://www.w3.org/2000/svg" version="1.1" xmlns:xlink="http://www.w3.org/1999/xlink" xmlns:svgjs="http://svgjs.com/svgjs" width="108" height="108"><svg width="108" height="108" viewBox="0 0 108 108" fill="none" xmlns="http://www.w3.org/2000/svg">
<path d="M67 87C85.2254 87 100 72.2254 100 54C100 35.7746 85.2254 21 67 21C51.9704 21 39.2875 31.0474 35.3018 44.7919C33.4562 44.2759 31.5103 44 29.5 44C17.6259 44 8 53.6259 8 65.5C8 77.3741 17.6259 87 29.5 87H67Z" fill="#D8B4FE" fill-opacity="0.5"></path>
<path d="M34 54C34 50.8042 34.4543 47.7145 35.3018 44.7919M35.3018 44.7919C33.4562 44.2759 31.5103 44 29.5 44C17.6259 44 8 53.6259 8 65.5C8 77.3741 17.6259 87 29.5 87H67C85.2254 87 100 72.2254 100 54C100 35.7746 85.2254 21 67 21C51.9704 21 39.2875 31.0474 35.3018 44.7919Z" stroke="#D8B4FE" stroke-width="12" stroke-linecap="round" stroke-linejoin="round"></path>
</svg><style>@media (prefers-color-scheme: light) { :root { filter: none; } }
</style></svg>