<svg viewBox="0 0 706 108" fill="none" xmlns="http://www.w3.org/2000/svg">
<path d="M67 87C85.2254 87 100 72.2254 100 54C100 35.7746 85.2254 21 67 21C51.9704 21 39.2875 31.0474 35.3018 44.7919C33.4562 44.2759 31.5103 44 29.5 44C17.6259 44 8 53.6259 8 65.5C8 77.3741 17.6259 87 29.5 87H67Z" fill="#D8B4FE" fill-opacity="0.5"/>
<path d="M34 54C34 50.8042 34.4543 47.7145 35.3018 44.7919M35.3018 44.7919C33.4562 44.2759 31.5103 44 29.5 44C17.6259 44 8 53.6259 8 65.5C8 77.3741 17.6259 87 29.5 87H67C85.2254 87 100 72.2254 100 54C100 35.7746 85.2254 21 67 21C51.9704 21 39.2875 31.0474 35.3018 44.7919Z" stroke="#D8B4FE" stroke-width="12" stroke-linecap="round" stroke-linejoin="round"/>
<g clip-path="url(#clip0_1_76)">
<mask id="mask0_1_76" style="mask-type:alpha" maskUnits="userSpaceOnUse" x="172" y="9" width="534" height="90">
<path d="M254.633 97.5H235.785V54.472C235.785 53.6453 235.826 52.736 235.909 51.744C235.496 52.736 235.124 53.5627 234.793 54.224L213.713 98.988L192.385 54.472C192.137 53.8933 191.806 52.984 191.393 51.744V54.472V97.5H172.545V10.7H191.765L211.977 54.968C212.556 56.2907 213.258 58.1093 214.085 60.424C214.912 58.1093 215.614 56.2907 216.193 54.968L237.025 10.7H254.633V97.5ZM283.714 97.5V10.7H302.562V97.5H283.714ZM390.064 97.5L383.616 80.636H351.004L344.556 97.5H323.972L358.196 10.7H376.3L410.648 97.5H390.064ZM377.292 63.276L369.852 44.552C368.695 41.7413 367.827 39.3027 367.248 37.236C366.918 38.6413 366.05 41.08 364.644 44.552L357.204 63.276H377.292ZM458.634 98.988C450.202 98.988 442.928 96.756 436.81 92.292C430.776 87.7453 426.436 81.504 423.79 73.568L440.654 67.244C442.638 71.46 445.242 74.8493 448.466 77.412C451.69 79.892 455.245 81.132 459.13 81.132C463.181 81.132 466.364 80.388 468.678 78.9C470.993 77.3293 472.15 75.0973 472.15 72.204C472.15 70.3027 471.282 68.608 469.546 67.12C467.893 65.632 466.116 64.5573 464.214 63.896C462.396 63.152 459.544 62.16 455.658 60.92C453.096 60.0933 451.153 59.4733 449.83 59.06C448.59 58.564 446.772 57.82 444.374 56.828C441.977 55.836 440.158 54.9267 438.918 54.1C437.678 53.2733 436.19 52.1573 434.454 50.752C432.718 49.3467 431.396 47.9 430.486 46.412C429.66 44.8413 428.916 42.9813 428.254 40.832C427.593 38.6 427.262 36.244 427.262 33.764C427.262 26.82 429.99 20.992 435.446 16.28C440.902 11.568 448.301 9.212 457.642 9.212C465.413 9.212 471.944 11.2373 477.234 15.288C482.525 19.3387 486.038 24.5467 487.774 30.912L470.91 36.368C468.182 30.168 463.429 27.068 456.65 27.068C449.624 27.068 446.11 29.424 446.11 34.136C446.11 35.2107 446.441 36.1613 447.102 36.988C447.764 37.8147 448.962 38.6413 450.698 39.468C452.434 40.2947 453.84 40.9147 454.914 41.328C456.072 41.7413 458.056 42.444 460.866 43.436C463.842 44.428 466.116 45.2133 467.686 45.792C469.34 46.3707 471.572 47.28 474.382 48.52C477.193 49.6773 479.384 50.9587 480.954 52.364C482.608 53.6867 484.302 55.2987 486.038 57.2C487.774 59.1013 489.014 61.3333 489.758 63.896C490.585 66.4587 490.998 69.2693 490.998 72.328C490.998 80.512 487.94 87.0013 481.822 91.796C475.705 96.5907 467.976 98.988 458.634 98.988ZM597.774 97.5H578.926V54.472C578.926 53.6453 578.967 52.736 579.05 51.744C578.637 52.736 578.265 53.5627 577.934 54.224L556.854 98.988L535.526 54.472C535.278 53.8933 534.947 52.984 534.534 51.744V54.472V97.5H515.686V10.7H534.906L555.118 54.968C555.697 56.2907 556.399 58.1093 557.226 60.424C558.053 58.1093 558.755 56.2907 559.334 54.968L580.166 10.7H597.774V97.5ZM684.777 97.5L678.329 80.636H645.717L639.269 97.5H618.685L652.909 10.7H671.013L705.361 97.5H684.777ZM672.005 63.276L664.565 44.552C663.408 41.7413 662.54 39.3027 661.961 37.236C661.631 38.6413 660.763 41.08 659.357 44.552L651.917 63.276H672.005Z" fill="white"/>
</mask>
<g mask="url(#mask0_1_76)">
<rect x="23" y="-93.5" width="936" height="442" fill="#D8B4FE" fill-opacity="0.75"/>
<path d="M194 27.5C91 27.5 46 77.5 -98 77.5V306H1167.5V97.5C1128.33 77.5 1033.5 37.5 967.5 37.5C885 37.5 804 89 732.5 89C671 89 640.5 56 577.5 56C473.5 56 434.5 143.5 375.5 143.5C337 143.5 297 27.5 194 27.5Z" fill="url(#paint0_linear_1_76)"/>
<path d="M211.5 6.5C-32 -10 -63 124 -303 29V228H934.5V-9.5C871.167 24 713.8 89 591 81C437.5 71 455 23 211.5 6.5Z" fill="url(#paint1_linear_1_76)"/>
<path d="M674.5 18.7309C431 2.2309 400 158.731 160 63.7309V262.731H1397.5V25.2309C1334.17 58.7309 1176.8 123.731 1054 115.731C900.5 105.731 918 35.2309 674.5 18.7309Z" fill="url(#paint2_linear_1_76)"/>
</g>
</g>
<defs>
<linearGradient id="paint0_linear_1_76" x1="178.109" y1="103" x2="178.109" y2="23.5" gradientUnits="userSpaceOnUse">
<stop stop-color="#D8B4FE"/>
<stop offset="1" stop-color="#D8B4FE" stop-opacity="0"/>
</linearGradient>
<linearGradient id="paint1_linear_1_76" x1="343.5" y1="109.5" x2="343.5" y2="0.999999" gradientUnits="userSpaceOnUse">
<stop stop-color="#D8B4FE"/>
<stop offset="1" stop-color="#D8B4FE" stop-opacity="0"/>
</linearGradient>
<linearGradient id="paint2_linear_1_76" x1="430" y1="75.2309" x2="430" y2="2.7309" gradientUnits="userSpaceOnUse">
<stop stop-color="#D8B4FE"/>
<stop offset="1" stop-color="#D8B4FE" stop-opacity="0"/>
</linearGradient>
<clipPath id="clip0_1_76">
<rect width="534" height="91" fill="white" transform="translate(172 8.5)"/>
</clipPath>
</defs>
</svg>
